PathFileType	4	(X/Y/Z)	pose_F01_0-83.trc
DataRate	CameraRate	NumFrames	NumMarkers	Units	OrigDataRate	OrigDataStartFrame	OrigNumFrames
30	30	7	21	m	30	35	83
Frame#	Time	CHip			RHip			RKnee			RAnkle			RBigToe			RSmallToe			RHeel			LHip			LKnee			LAnkle			LBigToe			LSmallToe			LHeel			Neck			Nose			RShoulder			RElbow			RWrist			LShoulder			LElbow			LWrist			
		X1	Y1	Z1	X2	Y2	Z2	X3	Y3	Z3	X4	Y4	Z4	X5	Y5	Z5	X6	Y6	Z6	X7	Y7	Z7	X8	Y8	Z8	X9	Y9	Z9	X10	Y10	Z10	X11	Y11	Z11	X12	Y12	Z12	X13	Y13	Z13	X14	Y14	Z14	X15	Y15	Z15	X16	Y16	Z16	X17	Y17	Z17	X18	Y18	Z18	X19	Y19	Z19	X20	Y20	Z20	X21	Y21	Z21	
35	1.1666666666666667	-0.19819444782682985	1.8390464570262068	-0.616253340347979	-0.21932485845428093	1.8369978867755403	-0.5548381316860573	-0.2217370551330661	1.7143384016417065	-0.506367725437836													-0.1809100740982616	1.8414254176795648	-0.6764273226546043	-0.1852787989721558	1.710974056363565	-0.6469218295786008	-0.18362265808682895	1.5828087729529157	-0.6364227007824248	-0.19712252823576087	1.5520403982936157	-0.6912061155022836	-0.1835983567060128	1.5620996476379376	-0.7053282619676348	-0.1850766996872817	1.5719195063167402	-0.6125020130342648	-0.19429496520471823	1.9859599825912693	-0.6230232914880206	-0.2035666401633756	2.0534901945720563	-0.6604320087252503	-0.2211475817934712	1.9813682305087839	-0.5355924132227988	-0.24199812467453316	1.9038198810157658	-0.5073735847371748	-0.2458334933320663	1.941158328740981	-0.5785948753328325	-0.16488489301372242	1.9867697807492952	-0.6992990414034793	-0.1568481876970778	1.9155695601281637	-0.7278902119873345	-0.15755009320522229	1.8411628307581467	-0.7453949479392875
36	1.2	-0.19677455775291325	1.839087855587992	-0.621879964428889	-0.21611900700689188	1.8346388958474724	-0.5623664584464731	-0.22366359906778904	1.7141922947637678	-0.5241419660796443													-0.17675587020748126	1.8414583555120552	-0.692966119708625	-0.1830185860637999	1.710322110841533	-0.6493939541225625	-0.18375661846261584	1.5840011607606854	-0.6362128387470812	-0.19273660602855916	1.5496245191638474	-0.6954030991113783	-0.17946938915025387	1.5613682436296283	-0.7092937426772278	-0.18527236058895183	1.572837629065841	-0.6125111859928342	-0.19394892227693214	1.9856653056458344	-0.6316788389756534	-0.2000274709041009	2.055984218747218	-0.667796879253538	-0.21997255656090622	1.9817067736524885	-0.5410962720088418	-0.2358591015242547	1.9023264679791998	-0.5139869208852984	-0.22217734590977942	1.9449867078080352	-0.6059340155979279	-0.16567120244805117	1.9880477583095832	-0.7137005667772612	-0.1553015093152853	1.9130500190492434	-0.7333166370017897	-0.15198402804626238	1.8364607160895845	-0.7589882583057622
37	1.2333333333333334	-0.19600007584760998	1.8415235242121841	-0.6395448181297929	-0.2127047978082116	1.8389218545933008	-0.570907045703019	-0.22559014300251196	1.7140461878858289	-0.5419162067214525													-0.17602149016881027	1.8430335468789636	-0.7019177661563397	-0.17951710282082994	1.710905623511334	-0.6571488373896686	-0.18382475273329807	1.5840238415963954	-0.6362093681817715	-0.19284542144197026	1.5527801031978743	-0.695708888813221	-0.18165778873343696	1.5613177522063655	-0.7071148398697197	-0.1854838011830907	1.5733792106147813	-0.6124653400578639	-0.19262979538066466	1.9855347714372695	-0.637413634630198	-0.1985861169932536	2.057494695297945	-0.6733001254637231	-0.21679375457043637	1.9826584944071488	-0.5487939957175547	-0.23402722606439885	1.9032546125472842	-0.5164405290089583	-0.22477280067645358	1.9452383964055033	-0.6038117981198442	-0.16239006524050056	1.9883162161924994	-0.7333406707080958	-0.15018329701936714	1.9086950901718882	-0.7468146263948323	-0.1482677540062097	1.8357958821971023	-0.7669404955991214
38	1.2666666666666666	-0.19402872380361746	1.843444915139506	-0.6420115793236295	-0.2109677694028417	1.8399933765358512	-0.5730461248235222	-0.2275166869372349	1.71390008100789	-0.5596904473632607													-0.1742097275431623	1.8436547851798128	-0.7041773402241472	-0.17731622646172407	1.7105529193671172	-0.6595340121806345	-0.1839605404611866	1.5853041331979936	-0.6360500145774509	-0.19284540423063087	1.5497174874899322	-0.6954070748245086	-0.18167254405013022	1.5612682115391834	-0.7071409838247066	-0.18559808056258234	1.5745038968196405	-0.6125453473536311	-0.18844863323241756	1.9856906242392864	-0.6420022856848765	-0.19771086338178515	2.0580283983904546	-0.689972443462848	-0.21475767297256743	1.9828864362915677	-0.5510818744549894	-0.23309658941142236	1.9029099381449899	-0.5218064225668161	-0.24028824707218263	1.9338072114459801	-0.595919598277165	-0.1579277056823793	1.988188299579918	-0.7381494647102174	-0.14882791519639058	1.9087484958235834	-0.7638646143140984	-0.14449460795953548	1.836212778440233	-0.7748456815796443
39	1.3	-0.19712089289496298	1.8409996456842799	-0.6427495780071829	-0.21190263195869602	1.839509820119545	-0.5762289780443312	-0.2250579816296896	1.708969683638988	-0.5703292824838575													-0.17630994162756686	1.842572077936044	-0.7020411850574476	-0.17763194608148003	1.7099155622596038	-0.6593572785904644	-0.18213186964598774	1.5840421368853959	-0.6376537435126793	-0.19264521399951706	1.5522163901528958	-0.6958347633232121	-0.1793749230114323	1.5610299230607314	-0.709353561780447	-0.18562447087357156	1.5721759064081016	-0.6119460672005861	-0.18712176163741412	1.9861234221979123	-0.6473607341856608	-0.19652027178594553	2.0604244806184555	-0.696222029899612	-0.216402899043109	1.984740464570507	-0.5574346568955123	-0.23072608159524227	1.904213430623403	-0.5238689328138201	-0.22575333001479067	1.939678612436992	-0.6062513579985478	-0.155719104963065	1.9886837328970544	-0.7406132734709966	-0.14519053585265768	1.9085193386556203	-0.771843185405855	-0.14343853152937203	1.834856997769826	-0.779997354778092
40	1.3333333333333333	-0.19520460231729728	1.8396782542336192	-0.6448223960489762	-0.21201571963875404	1.8384185291492294	-0.576122128499065	-0.22757498170278756	1.7064135392445379	-0.5675009169779535													-0.17458475445031288	1.840100873089977	-0.7038807872265085	-0.1787990472702386	1.708801333515684	-0.6619163574974661	-0.18422061730760333	1.583827403706231	-0.6354986442009192	-0.19295773531175042	1.5509376831667572	-0.6952326402664084	-0.17942733623381804	1.5611813874725948	-0.7093616340129979	-0.1865214451713131	1.57143809547006	-0.6151550697309209	-0.18663304977294587	1.9868285914886377	-0.6558838857996523	-0.19726615140498763	2.0627541256707875	-0.6995465003219637	-0.21621741477343842	1.985349239544971	-0.5659709475982553	-0.23172126389653594	1.9062889758553387	-0.5274273560504792	-0.22422969946245402	1.9428966149027131	-0.6207046873822644	-0.15503438336641415	1.989626256776818	-0.7488445490689741	-0.14493464931833808	1.9082982164964621	-0.7720965836625454	-0.14470904952025795	1.8354487869348353	-0.7864800784746955
41	1.3666666666666667	-0.19717299785821585	1.837975144508872	-0.6426195069687025	-0.2127269254224052	1.8385953883862551	-0.5794239094171872	-0.22950860808123194	1.7048819375791586	-0.5653472216237153													-0.17507576009430525	1.839885154556908	-0.7069453524158119	-0.18093695924374015	1.7085458113972396	-0.6597235659375076	-0.18240515174533528	1.5826135593283106	-0.6371010490674622	-0.19298529266637723	1.5508797384920856	-0.6951426793793034	-0.17965763264479123	1.5596832354569279	-0.7087282656784291	-0.18777170261361953	1.5704055573627753	-0.6179988869645786	-0.18927383338258966	1.9869906321591218	-0.665175991012825	-0.19513922378258794	2.0615831157981845	-0.7014658562210357	-0.21723785421195985	1.985109094528742	-0.569209996673182	-0.23367102149340793	1.9069288649714626	-0.5338976376363436	-0.22747355096881378	1.9402294724558733	-0.6127253124874444	-0.15664853433347142	1.9904477093941526	-0.7550419542758932	-0.14600723479726255	1.9070627302591978	-0.7748823342495437	-0.14788493194262783	1.8327517518066647	-0.7868598072311168
